<svg width="128" height="128" viewBox="0 0 128 128" fill="none" xmlns="http://www.w3.org/2000/svg">
<g clip-path="url(#clip0_1_2)">
<path d="M53.5 23C53.9 23.4 60 23.1667 63 23L61.5 20L53.5 23Z" fill="#CA9426"/>
<path d="M64 12.5L67 20.5L64 22V12.5Z" fill="#CA9426"/>
<path d="M64 24.5L61.5 25.5L64 33.5V24.5Z" fill="#CA9426"/>
<path d="M74.5 23L66.5 26L65 23H74.5Z" fill="#CA9426"/>
<path d="M53.5 23C53.9 23.4 60 23.1667 63 23L61.5 20L53.5 23Z" stroke="#CA9426"/>
<path d="M64 12.5L67 20.5L64 22V12.5Z" stroke="#CA9426"/>
<path d="M64 24.5L61.5 25.5L64 33.5V24.5Z" stroke="#CA9426"/>
<path d="M74.5 23L66.5 26L65 23H74.5Z" stroke="#CA9426"/>
<path d="M68 19L64 7L60 19L48 23L60 27L64 39L68 27L80 23L68 19ZM53.3333 23L61.3333 20.3333L62.6667 23H53.3333ZM64 33.6667L61.3333 25.6667L64 24.3333V33.6667ZM64 12.3333L66.6667 20.3333L64 21.6667V12.3333ZM66.6667 25.6667L65.3333 23H74.6667L66.6667 25.6667Z" fill="#AC7300"/>
</g>
<path d="M22.6875 78.6875V78.375L24.4688 74.625H27.375V58.75L43.1562 46.5625C47.9062 46.5625 51.7604 48.0729 54.7188 51.0938C57.5312 53.9688 58.9375 57.6667 58.9375 62.1875V93.375L53 96.25H52.6875V62.1875C52.6875 59.3958 51.9375 57.1354 50.4375 55.4062C48.5833 53.2604 46.1562 52.1875 43.1562 52.1875C40.0938 52.1875 37.6667 53.2604 35.875 55.4062C34.375 57.1979 33.625 59.4583 33.625 62.1875V74.625H48.3125V74.9375L46.5312 78.6875H33.625V93.4375L27.6875 96.25H27.375V78.6875H22.6875ZM71.4375 96.25V49.375L77.375 46.5625H77.6875V91.875C82.8125 90.9583 87.0208 89.2604 90.3125 86.7812C94.3125 83.7604 96.3125 80.5104 96.3125 77.0312C96.3125 73.9688 94.3958 71.3958 90.5625 69.3125C88.5 68.1875 86.5729 67.375 84.7812 66.875C89.3229 64.3125 91.5938 61.3854 91.5938 58.0938C91.5938 55.9896 90.0625 54.1875 87 52.6875C84.2083 51.2917 81.1979 50.3854 77.9688 49.9688L85.125 46.5625H85.4375C88.5625 47.3333 91.0521 48.5 92.9062 50.0625C95.3438 52.1042 96.5625 54.5104 96.5625 57.2812C96.5625 59.7188 95.1667 62.0312 92.375 64.2188C94.25 64.7396 96 65.6562 97.625 66.9688C100.625 69.3854 102.125 72.2917 102.125 75.6875C102.125 80.7292 99.5312 85.0104 94.3438 88.5312C88.0521 92.7604 80.5208 95.3333 71.75 96.25H71.4375Z" fill="#CA9426"/>
<path d="M28.7031 116.312C27.5156 116.312 26.5521 115.935 25.8125 115.18C25.1094 114.461 24.7578 113.536 24.7578 112.406V106.938L28.7031 103.891C29.8906 103.891 30.8542 104.268 31.5938 105.023C32.2969 105.742 32.6484 106.667 32.6484 107.797L31.1641 108.5H31.0859V107.797C31.0859 107.099 30.8984 106.534 30.5234 106.102C30.0599 105.565 29.4531 105.297 28.7031 105.297C27.9479 105.297 27.3411 105.565 26.8828 106.102C26.5078 106.534 26.3203 107.099 26.3203 107.797V112.406C26.3203 113.094 26.5078 113.659 26.8828 114.102C27.3359 114.638 27.9427 114.906 28.7031 114.906C29.4479 114.906 30.0547 114.638 30.5234 114.102C30.8984 113.669 31.0859 113.104 31.0859 112.406L32.5703 111.703H32.6484V113.266L28.7031 116.312ZM39.7188 114.906C40.4635 114.906 41.0703 114.638 41.5391 114.102C41.9141 113.669 42.1016 113.104 42.1016 112.406V107.797C42.1016 107.099 41.9141 106.534 41.5391 106.102C41.0755 105.565 40.4688 105.297 39.7188 105.297C38.9635 105.297 38.3568 105.565 37.8984 106.102C37.5234 106.534 37.3359 107.099 37.3359 107.797V112.406C37.3359 113.094 37.5234 113.659 37.8984 114.102C38.3516 114.638 38.9583 114.906 39.7188 114.906ZM39.7188 116.312C38.5312 116.312 37.5677 115.935 36.8281 115.18C36.125 114.461 35.7734 113.536 35.7734 112.406V106.938L39.7188 103.891C40.9062 103.891 41.8698 104.268 42.6094 105.023C43.3125 105.742 43.6641 106.667 43.6641 107.797V113.266L39.7188 116.312ZM46.7891 116.312V106.938L50.7344 103.891C51.9323 103.891 52.8958 104.268 53.625 105.023C53.9115 105.32 54.1406 105.651 54.3125 106.016L57.0625 103.891C58.25 103.891 59.2135 104.268 59.9531 105.023C60.6562 105.742 61.0078 106.667 61.0078 107.797V115.594L59.5234 116.312H59.4453V107.797C59.4453 107.099 59.2578 106.534 58.8828 106.102C58.4193 105.565 57.8125 105.297 57.0625 105.297C56.2969 105.297 55.6901 105.565 55.2422 106.102C54.8672 106.549 54.6797 107.115 54.6797 107.797V115.594V115.609L53.1953 116.312H53.1172V107.797C53.1172 107.099 52.9297 106.534 52.5547 106.102C52.0911 105.565 51.4844 105.297 50.7344 105.297C49.9688 105.297 49.362 105.565 48.9141 106.102C48.5391 106.549 48.3516 107.115 48.3516 107.797V115.609L46.8672 116.312H46.7891ZM64.1328 116.312V104.594L65.6172 103.891H65.6953V113.227C66.7005 112.919 67.6693 112.396 68.6016 111.656C69.6484 110.828 70.1719 109.799 70.1719 108.57C70.1719 107.612 69.7708 106.789 68.9688 106.102C68.2396 105.477 67.1771 105.023 65.7812 104.742L67.5703 103.891H67.6484C68.6745 104.094 69.5547 104.56 70.2891 105.289C71.1797 106.169 71.625 107.26 71.625 108.562C71.625 110.036 70.7865 111.333 69.1094 112.453C68.0781 113.141 66.9401 113.659 65.6953 114.008V115.609L64.2109 116.312H64.1328ZM72.5703 111.922V111.844L73.0156 110.906H73.7422V106.938L77.6875 103.891C78.875 103.891 79.8385 104.268 80.5781 105.023C81.2812 105.742 81.6328 106.667 81.6328 107.797V115.594L80.1484 116.312H80.0703V107.797C80.0703 107.099 79.8828 106.534 79.5078 106.102C79.0443 105.565 78.4375 105.297 77.6875 105.297C76.9219 105.297 76.3151 105.565 75.8672 106.102C75.4922 106.549 75.3047 107.115 75.3047 107.797V110.906H78.9766V110.984L78.5312 111.922H75.3047V115.609L73.8203 116.312H73.7422V111.922H72.5703ZM84.7578 116.312V106.938L88.7031 103.891C89.8906 103.891 90.8542 104.268 91.5938 105.023C92.2969 105.742 92.6484 106.667 92.6484 107.797V115.594L91.1641 116.312H91.0859V107.797C91.0859 107.099 90.8984 106.534 90.5234 106.102C90.0599 105.565 89.4531 105.297 88.7031 105.297C87.9375 105.297 87.3307 105.565 86.8828 106.102C86.5078 106.549 86.3203 107.115 86.3203 107.797V115.609L84.8359 116.312H84.7578ZM97.8516 116.312V111.922H95.6094V111.844L96.0547 110.906H97.4609L94.6016 104.539L95.9688 103.891H96.0469L99.0078 110.609L102.125 103.891H102.203L103.023 104.281L99.8516 110.906H102.016V110.984L101.57 111.922H99.4141V115.609L97.9297 116.312H97.8516Z" fill="#CA9426"/>
<defs>
<clipPath id="clip0_1_2">
<rect width="32" height="32" fill="white" transform="translate(48 7)"/>
</clipPath>
</defs>
</svg>
